
<svg width="80" height="80" viewBox="0 0 80 80" fill="none" xmlns="http://www.w3.org/2000/svg">
<rect width="80" height="80" rx="8" fill="white"/>
<path d="M20.0341 57V22.0909H33.8068C36.4432 22.0909 38.6932 22.5625 40.5568 23.5057C42.4318 24.4375 43.858 25.7614 44.8352 27.4773C45.8239 29.1818 46.3182 31.1875 46.3182 33.4943C46.3182 35.8125 45.8182 37.8068 44.8182 39.4773C43.8182 41.1364 42.3693 42.4091 40.4716 43.2955C38.5852 44.1818 36.3011 44.625 33.6193 44.625H24.3977V38.6932H32.4261C33.8352 38.6932 35.0057 38.5 35.9375 38.1136C36.8693 37.7273 37.5625 37.1477 38.017 36.375C38.483 35.6023 38.7159 34.642 38.7159 33.4943C38.7159 32.3352 38.483 31.358 38.017 30.5625C37.5625 29.767 36.8636 29.1648 35.9205 28.7557C34.9886 28.3352 33.8125 28.125 32.392 28.125H27.4148V57H20.0341ZM38.8864 41.1136L47.5625 57H39.4148L30.9261 41.1136H38.8864ZM55.642 57.4432C54.517 57.4432 53.5511 57.0455 52.7443 56.25C51.9489 55.4432 51.5511 54.4773 51.5511 53.3523C51.5511 52.2386 51.9489 51.2841 52.7443 50.4886C53.5511 49.6932 54.517 49.2955 55.642 49.2955C56.733 49.2955 57.6875 49.6932 58.5057 50.4886C59.3239 51.2841 59.733 52.2386 59.733 53.3523C59.733 54.1023 59.5398 54.7898 59.1534 55.4148C58.7784 56.0284 58.2841 56.5227 57.6705 56.8977C57.0568 57.2614 56.3807 57.4432 55.642 57.4432Z" fill="black"/>
</svg>
