<svg width="189" height="47" viewBox="0 0 189 47" fill="none" xmlns="http://www.w3.org/2000/svg">
<path d="M0.0340909 37V2.09091H13.8068C16.4432 2.09091 18.6932 2.5625 20.5568 3.50568C22.4318 4.4375 23.858 5.76136 24.8352 7.47727C25.8239 9.18182 26.3182 11.1875 26.3182 13.4943C26.3182 15.8125 25.8182 17.8068 24.8182 19.4773C23.8182 21.1364 22.3693 22.4091 20.4716 23.2955C18.5852 24.1818 16.3011 24.625 13.6193 24.625H4.39773V18.6932H12.4261C13.8352 18.6932 15.0057 18.5 15.9375 18.1136C16.8693 17.7273 17.5625 17.1477 18.017 16.375C18.483 15.6023 18.7159 14.642 18.7159 13.4943C18.7159 12.3352 18.483 11.358 18.017 10.5625C17.5625 9.76704 16.8636 9.16477 15.9205 8.75568C14.9886 8.33523 13.8125 8.125 12.392 8.125H7.41477V37H0.0340909ZM18.8864 21.1136L27.5625 37H19.4148L10.9261 21.1136H18.8864ZM42.9077 37.5114C40.2145 37.5114 37.8963 36.9659 35.9531 35.875C34.0213 34.7727 32.5327 33.2159 31.4872 31.2045C30.4418 29.1818 29.919 26.7898 29.919 24.0284C29.919 21.3352 30.4418 18.9716 31.4872 16.9375C32.5327 14.9034 34.0043 13.3182 35.902 12.1818C37.8111 11.0455 40.0497 10.4773 42.6179 10.4773C44.3452 10.4773 45.9531 10.7557 47.4418 11.3125C48.9418 11.858 50.2486 12.6818 51.3622 13.7841C52.4872 14.8864 53.3622 16.2727 53.9872 17.9432C54.6122 19.6023 54.9247 21.5455 54.9247 23.7727V25.767H32.8168V21.267H48.0895C48.0895 20.2216 47.8622 19.2955 47.4077 18.4886C46.9531 17.6818 46.3224 17.0511 45.5156 16.5966C44.7202 16.1307 43.794 15.8977 42.7372 15.8977C41.6349 15.8977 40.6577 16.1534 39.8054 16.6648C38.9645 17.1648 38.3054 17.8409 37.8281 18.6932C37.3509 19.5341 37.1065 20.4716 37.0952 21.5057V25.7841C37.0952 27.0795 37.3338 28.1989 37.8111 29.142C38.2997 30.0852 38.9872 30.8125 39.8736 31.3239C40.7599 31.8352 41.8111 32.0909 43.027 32.0909C43.8338 32.0909 44.5724 31.9773 45.2429 31.75C45.9134 31.5227 46.4872 31.1818 46.9645 30.7273C47.4418 30.2727 47.8054 29.7159 48.0554 29.0568L54.7713 29.5C54.4304 31.1136 53.7315 32.5227 52.6747 33.7273C51.6293 34.9205 50.277 35.8523 48.6179 36.5227C46.9702 37.1818 45.0668 37.5114 42.9077 37.5114ZM66.9247 21.8636V37H59.6634V10.8182H66.5838V15.4375H66.8906C67.4702 13.9148 68.4418 12.7102 69.8054 11.8239C71.169 10.9261 72.8224 10.4773 74.7656 10.4773C76.5838 10.4773 78.169 10.875 79.5213 11.6705C80.8736 12.4659 81.9247 13.6023 82.6747 15.0795C83.4247 16.5455 83.7997 18.2955 83.7997 20.3295V37H76.5384V21.625C76.5497 20.0227 76.1406 18.7727 75.3111 17.875C74.4815 16.9659 73.3395 16.5114 71.8849 16.5114C70.9077 16.5114 70.044 16.7216 69.294 17.142C68.5554 17.5625 67.9759 18.1761 67.5554 18.983C67.1463 19.7784 66.9361 20.7386 66.9247 21.8636ZM103.449 10.8182V16.2727H87.6818V10.8182H103.449ZM91.2614 4.54545H98.5227V28.9545C98.5227 29.625 98.625 30.1477 98.8295 30.5227C99.0341 30.8864 99.3182 31.142 99.6818 31.2898C100.057 31.4375 100.489 31.5114 100.977 31.5114C101.318 31.5114 101.659 31.483 102 31.4261C102.341 31.358 102.602 31.3068 102.784 31.2727L103.926 36.6761C103.563 36.7898 103.051 36.9205 102.392 37.0682C101.733 37.2273 100.932 37.3239 99.9886 37.358C98.2386 37.4261 96.7045 37.1932 95.3864 36.6591C94.0795 36.125 93.0625 35.2955 92.3352 34.1705C91.608 33.0455 91.25 31.625 91.2614 29.9091V4.54545ZM108.179 37V10.8182H115.44V37H108.179ZM111.827 7.44318C110.747 7.44318 109.821 7.08523 109.048 6.36932C108.287 5.64204 107.906 4.77273 107.906 3.76136C107.906 2.76136 108.287 1.90341 109.048 1.1875C109.821 0.460226 110.747 0.0965891 111.827 0.0965891C112.906 0.0965891 113.827 0.460226 114.588 1.1875C115.361 1.90341 115.747 2.76136 115.747 3.76136C115.747 4.77273 115.361 5.64204 114.588 6.36932C113.827 7.08523 112.906 7.44318 111.827 7.44318ZM138.558 46.8182V32.8068H138.337C137.996 33.5341 137.513 34.2557 136.888 34.9716C136.274 35.6761 135.473 36.2614 134.484 36.7273C133.507 37.1932 132.314 37.4261 130.905 37.4261C128.916 37.4261 127.115 36.9148 125.501 35.892C123.899 34.858 122.626 33.3409 121.683 31.3409C120.751 29.3295 120.286 26.8636 120.286 23.9432C120.286 20.9432 120.768 18.4489 121.734 16.4602C122.7 14.4602 123.984 12.9659 125.587 11.9773C127.2 10.9773 128.967 10.4773 130.888 10.4773C132.354 10.4773 133.575 10.7273 134.553 11.2273C135.541 11.7159 136.337 12.3295 136.939 13.0682C137.553 13.7955 138.018 14.5114 138.337 15.2159H138.643V10.8182H145.803V46.8182H138.558ZM133.206 31.6477C134.376 31.6477 135.365 31.3295 136.172 30.6932C136.99 30.0455 137.615 29.142 138.047 27.983C138.49 26.8239 138.712 25.4659 138.712 23.9091C138.712 22.3523 138.496 21 138.064 19.8523C137.632 18.7045 137.007 17.8182 136.189 17.1932C135.371 16.5682 134.376 16.2557 133.206 16.2557C132.013 16.2557 131.007 16.5795 130.189 17.2273C129.371 17.875 128.751 18.7727 128.331 19.9205C127.911 21.0682 127.7 22.3977 127.7 23.9091C127.7 25.4318 127.911 26.7784 128.331 27.9489C128.763 29.108 129.382 30.017 130.189 30.6761C131.007 31.3239 132.013 31.6477 133.206 31.6477ZM163.564 37.5114C160.871 37.5114 158.553 36.9659 156.609 35.875C154.678 34.7727 153.189 33.2159 152.143 31.2045C151.098 29.1818 150.575 26.7898 150.575 24.0284C150.575 21.3352 151.098 18.9716 152.143 16.9375C153.189 14.9034 154.661 13.3182 156.558 12.1818C158.467 11.0455 160.706 10.4773 163.274 10.4773C165.001 10.4773 166.609 10.7557 168.098 11.3125C169.598 11.858 170.905 12.6818 172.018 13.7841C173.143 14.8864 174.018 16.2727 174.643 17.9432C175.268 19.6023 175.581 21.5455 175.581 23.7727V25.767H153.473V21.267H168.746C168.746 20.2216 168.518 19.2955 168.064 18.4886C167.609 17.6818 166.979 17.0511 166.172 16.5966C165.376 16.1307 164.45 15.8977 163.393 15.8977C162.291 15.8977 161.314 16.1534 160.462 16.6648C159.621 17.1648 158.962 17.8409 158.484 18.6932C158.007 19.5341 157.763 20.4716 157.751 21.5057V25.7841C157.751 27.0795 157.99 28.1989 158.467 29.142C158.956 30.0852 159.643 30.8125 160.53 31.3239C161.416 31.8352 162.467 32.0909 163.683 32.0909C164.49 32.0909 165.229 31.9773 165.899 31.75C166.57 31.5227 167.143 31.1818 167.621 30.7273C168.098 30.2727 168.462 29.7159 168.712 29.0568L175.428 29.5C175.087 31.1136 174.388 32.5227 173.331 33.7273C172.286 34.9205 170.933 35.8523 169.274 36.5227C167.626 37.1818 165.723 37.5114 163.564 37.5114ZM184.564 37.4432C183.439 37.4432 182.473 37.0455 181.666 36.25C180.871 35.4432 180.473 34.4773 180.473 33.3523C180.473 32.2386 180.871 31.2841 181.666 30.4886C182.473 29.6932 183.439 29.2955 184.564 29.2955C185.655 29.2955 186.609 29.6932 187.428 30.4886C188.246 31.2841 188.655 32.2386 188.655 33.3523C188.655 34.1023 188.462 34.7898 188.075 35.4148C187.7 36.0284 187.206 36.5227 186.592 36.8977C185.979 37.2614 185.303 37.4432 184.564 37.4432Z" fill="black"/>
</svg>
